<?xml version="1.0" encoding="utf-8"?>
<!-- Generator: Adobe Illustrator 26.2.1, SVG Export Plug-In . SVG Version: 6.00 Build 0)  -->
<svg version="1.1" id="Layer_1" xmlns="http://www.w3.org/2000/svg" xmlns:xlink="http://www.w3.org/1999/xlink" x="0px" y="0px"
	 viewBox="0 0 128 128" style="enable-background:new 0 0 128 128;" xml:space="preserve">
<style type="text/css">
	.st0{display:none;fill:#20D181;}
	.st1{fill:#FFFFFF;stroke:#000000;stroke-miterlimit:10;}
	.st2{fill:#1572B6;}
</style>
<g id="Layer_13">
	<path class="st0" d="M0,0h128v128H0V0z"/>
	<path class="st1" d="M0,0h128v128H0V0z"/>
</g>
<g id="Layer_12">
	<path class="st2" d="M7.6,0l10.3,115.2l46,12.8l46.2-12.9L120.4,0H7.6z M99.1,26.4l-3.4,38.4V65v0.5l0,0l-2.4,26.8L93,94.7l-28.9,8
		l0,0l0,0l-28.9-8l-2-22.2h14.2l1,11.3L64,87.9l0,0l0,0l15.8-4.3l1.7-18.4h-33l-0.3-3.1l-0.6-7.3L47.2,51h35.5L84,36.7H30l-0.3-3.1
		L29,26.3l-0.3-3.9h70.7C99.4,22.4,99.1,26.4,99.1,26.4z"/>
</g>
</svg>
