<?xml version="1.0" encoding="utf-8"?>
<!-- Generator: Adobe Illustrator 26.2.1, SVG Export Plug-In . SVG Version: 6.00 Build 0)  -->
<svg version="1.1" id="Layer_1" xmlns="http://www.w3.org/2000/svg" xmlns:xlink="http://www.w3.org/1999/xlink" x="0px" y="0px"
	 viewBox="0 0 128 128" style="enable-background:new 0 0 128 128;" xml:space="preserve">
<style type="text/css">
	.st0{display:none;fill:#20D181;}
	.st1{fill:#FFFFFF;stroke:#000000;stroke-miterlimit:10;}
	.st2{fill:#BF0001;}
</style>
<g id="Layer_13">
	<path class="st0" d="M0,0h128v128H0V0z"/>
	<path class="st1" d="M0,0h128v128H0V0z"/>
</g>
<g id="Layer_16">
	<desc>This is shape (source) for Clarity vector icon theme for gtk</desc>
	<path class="st2" d="M6.3,0c0,3.5-2.8,6.3-6.3,6.3v1.6c3.5,0,6.3,2.8,6.3,6.3S3.5,20.5,0,20.5v1.6c3.5,0,6.3,2.8,6.3,6.3
		S3.5,34.8,0,34.8v1.6c3.5,0,6.3,2.8,6.3,6.3C6.3,46.1,3.5,49,0,49v1.6c3.5,0,6.3,2.8,6.3,6.3S3.5,63.2,0,63.2v1.6
		c3.5,0,6.3,2.8,6.3,6.3S3.5,77.4,0,77.4V79c3.5,0,6.3,2.8,6.3,6.3S3.5,91.6,0,91.6v1.6c3.5,0,6.3,2.8,6.3,6.3s-2.8,6.3-6.3,6.3v1.6
		c3.5,0,6.3,2.8,6.3,6.3S3.5,120,0,120v1.6c3.5,0,6.3,2.8,6.3,6.3h1.6c0-3.5,2.8-6.3,6.3-6.3s6.3,2.8,6.3,6.3h1.6
		c0-3.5,2.8-6.3,6.3-6.3s6.3,2.8,6.3,6.3h1.6c0-3.5,2.8-6.3,6.3-6.3s6.3,2.8,6.3,6.3h1.6c0-3.5,2.8-6.3,6.3-6.3s6.3,2.8,6.3,6.3h1.6
		c0-3.5,2.8-6.3,6.3-6.3s6.3,2.8,6.3,6.3H79c0-3.5,2.8-6.3,6.3-6.3s6.3,2.8,6.3,6.3h1.6c0-3.5,2.8-6.3,6.3-6.3s6.3,2.8,6.3,6.3h1.6
		c0-3.5,2.8-6.3,6.3-6.3s6.3,2.8,6.3,6.3h1.6c0-3.3,2.5-5.9,5.7-6.3c0.2,0,0.4,0,0.6,0V120c-3.5,0-6.3-2.8-6.3-6.3s2.8-6.3,6.3-6.3
		v-1.6c-3.5,0-6.3-2.9-6.3-6.3s2.8-6.3,6.3-6.3v-1.6c-3.5,0-6.3-2.8-6.3-6.3s2.8-6.3,6.3-6.3v-1.6c-3.5,0-6.3-2.8-6.3-6.3
		s2.8-6.3,6.3-6.3v-1.6c-3.5,0-6.3-2.8-6.3-6.3s2.8-6.3,6.3-6.3V49c-3.5,0-6.3-2.9-6.3-6.3s2.8-6.3,6.3-6.3v-1.6
		c-3.5,0-6.3-2.8-6.3-6.3c0-3.3,2.5-6,5.7-6.3c0.2,0,0.4,0,0.6,0v-1.6c-3.5,0-6.3-2.8-6.3-6.3s2.8-6.3,6.3-6.3V6.3
		c-3.5,0-6.3-2.8-6.3-6.3H120c0,3.5-2.9,6.3-6.3,6.3s-6.3-2.8-6.3-6.3h-1.6c0,3.5-2.8,6.3-6.3,6.3S93.3,3.5,93.3,0h-1.6
		c0,3.5-2.8,6.3-6.3,6.3C81.8,6.3,79,3.5,79,0h-1.6c0,3.5-2.8,6.3-6.3,6.3S64.8,3.5,64.8,0h-1.6c0,3.5-2.9,6.3-6.3,6.3
		c-3.5,0-6.3-2.8-6.3-6.3H49c0,3.5-2.8,6.3-6.3,6.3S36.4,3.5,36.4,0h-1.6c0,3.5-2.8,6.3-6.3,6.3S22.1,3.5,22.1,0h-1.6
		c0,3.5-2.8,6.3-6.3,6.3S7.9,3.5,7.9,0H6.3L6.3,0z M35.7,19h55.1l-2.5,15.5H50.1l-3.6,14.9l61.7,0.5l-2.5,11.3L74.3,92.6
		c0,0,8.2,2.6,14.9,1.5c6.7-1,15.4-5.6,15.4-5.6l-3.6,15.9c0,0-5.1,1.5-11.3,3.1c-6.2,1.5-9.2,2.1-12.8,0.5s-9.3-2-13.4-1.5
		s-9.3,2-9.3,2l-5.6-11.3L82,64.1H44.7l-8,35.7h-17L35.7,19z"/>
</g>
</svg>
