<?xml version="1.0" encoding="utf-8"?>
<!-- Generator: Adobe Illustrator 26.2.1, SVG Export Plug-In . SVG Version: 6.00 Build 0)  -->
<svg version="1.1" id="Layer_1" xmlns="http://www.w3.org/2000/svg" xmlns:xlink="http://www.w3.org/1999/xlink" x="0px" y="0px"
	 viewBox="0 0 128 128" style="enable-background:new 0 0 128 128;" xml:space="preserve">
<style type="text/css">
	.st0{display:none;fill:#20D181;}
	.st1{display:none;fill:#FFFFFF;stroke:#000000;stroke-miterlimit:10;}
	.st2{fill-rule:evenodd;clip-rule:evenodd;fill:#88A8BA;}
	.st3{fill:#88A8BA;}
</style>
<g id="Layer_13">
	<path class="st0" d="M0,0h128v128H0V0z"/>
	<path class="st1" d="M0,0h128v128H0V0z"/>
</g>
<g id="Layer_8">
	<g id="Layer_1_00000106837336486342458080000017600583024017621896_">
		<g>
			<path class="st2" d="M64.1,0.2c-35.3,0-64,28.6-64,64c0,28.3,18.3,52.3,43.8,60.7c3.2,0.6,4.3-1.4,4.3-3.1
				c0-1.5-0.1-6.6-0.1-11.9c-17.8,3.9-21.5-7.5-21.5-7.5c-2.9-7.4-7.1-9.3-7.1-9.3c-5.8-3.9,0.4-3.9,0.4-3.9
				c6.5,0.4,9.9,6.6,9.9,6.6c5.7,9.8,14.9,7,18.7,5.3c0.5-4.1,2.2-7,4-8.6C38.2,91,23.3,85.4,23.3,61c0-7,2.5-12.7,6.6-17.2
				c-0.6-1.6-2.9-8.2,0.6-17c0,0,5.4-1.7,17.6,6.6c5.1-1.4,10.6-2.1,16-2.1s10.9,0.7,16,2.1c12.2-8.3,17.6-6.6,17.6-6.6
				c3.5,8.8,1.3,15.4,0.6,17c4.1,4.5,6.6,10.2,6.6,17.2c0,24.6-14.9,30-29.3,31.6c2.3,2,4.3,5.9,4.3,11.9c0,8.6-0.1,15.5-0.1,17.6
				c0,1.7,1.2,3.7,4.3,3.1c25.4-8.5,43.8-32.4,43.8-60.7C128.1,28.8,99.4,0.2,64.1,0.2L64.1,0.2z"/>
			<path class="st3" d="M24.3,92.1c-0.1,0.3-0.6,0.4-1.1,0.2s-0.7-0.6-0.5-1c0.1-0.3,0.6-0.4,1.1-0.2C24.2,91.4,24.4,91.8,24.3,92.1
				L24.3,92.1z M26.9,95c-0.3,0.3-1,0.1-1.3-0.3c-0.4-0.4-0.5-1.1-0.2-1.4s0.8-0.1,1.3,0.3C27.2,94.1,27.2,94.8,26.9,95L26.9,95z
				 M29.4,98.7c-0.4,0.3-1.1,0-1.5-0.5s-0.4-1.3,0-1.5c0.4-0.3,1.1,0,1.5,0.5S29.8,98.4,29.4,98.7L29.4,98.7z M32.9,102.3
				c-0.3,0.4-1.1,0.3-1.7-0.2c-0.5-0.5-0.7-1.3-0.3-1.6c0.3-0.4,1.1-0.3,1.7,0.2C33.1,101.1,33.2,101.9,32.9,102.3L32.9,102.3z
				 M37.7,104.3c-0.1,0.5-0.8,0.7-1.6,0.5c-0.7-0.2-1.2-0.8-1.1-1.3c0.1-0.5,0.8-0.7,1.6-0.5S37.8,103.8,37.7,104.3z M42.9,104.7
				c0,0.5-0.6,1-1.4,1s-1.4-0.4-1.4-1c0-0.5,0.6-1,1.4-1C42.3,103.8,42.9,104.2,42.9,104.7L42.9,104.7z M47.8,103.9
				c0.1,0.5-0.4,1.1-1.2,1.2c-0.7,0.1-1.4-0.2-1.5-0.7s0.4-1.1,1.2-1.2C47,103,47.7,103.4,47.8,103.9L47.8,103.9z"/>
		</g>
	</g>
</g>
</svg>
