<?xml version="1.0" encoding="utf-8"?>
<!-- Generator: Adobe Illustrator 26.2.1, SVG Export Plug-In . SVG Version: 6.00 Build 0)  -->
<svg version="1.1" id="Layer_1" xmlns="http://www.w3.org/2000/svg" xmlns:xlink="http://www.w3.org/1999/xlink" x="0px" y="0px"
	 viewBox="0 0 128 128" style="enable-background:new 0 0 128 128;" xml:space="preserve">
<style type="text/css">
	.st0{display:none;fill:#20D181;}
	.st1{display:none;fill:#FFFFFF;stroke:#000000;stroke-miterlimit:10;}
	.st2{fill:#E44D26;}
</style>
<g id="Layer_13">
	<path class="st0" d="M0,0h128v128H0V0z"/>
	<path class="st1" d="M0,0h128v128H0V0z"/>
</g>
<g id="Layer_7">
	<path class="st2" d="M7.6,0.1l10.3,115.1L64,127.9l46.2-12.7L120.4,0.1H7.6z M99.1,27.3l-0.6,7.4l-0.3,3.4H44.1l1.3,14.4h51.5
		L96.5,56l-3.3,37.1L93,95.5l-29,8l0,0l0,0l-29-7.7L33,74h14.2l1,11.2L64,89.4l0,0v-0.6l15.8-4l1.6-18.1h-49l-3.4-39l-0.3-4h70.8
		C99.4,23.7,99.1,27.3,99.1,27.3z"/>
</g>
</svg>
