<?xml version="1.0" encoding="utf-8"?>
<!-- Generator: Adobe Illustrator 26.2.1, SVG Export Plug-In . SVG Version: 6.00 Build 0)  -->
<svg version="1.1" id="Layer_1" xmlns="http://www.w3.org/2000/svg" xmlns:xlink="http://www.w3.org/1999/xlink" x="0px" y="0px"
	 viewBox="0 0 128 128" style="enable-background:new 0 0 128 128;" xml:space="preserve">
<style type="text/css">
	.st0{display:none;fill:#20D181;}
	.st1{display:none;fill:#FFFFFF;stroke:#000000;stroke-miterlimit:10;}
	.st2{fill:#330000;}
	.st3{fill:#FF9A00;}
</style>
<g id="Layer_13">
	<path class="st0" d="M0,0h128v128H0V0z"/>
	<path class="st1" d="M0,0h128v128H0V0z"/>
</g>
<g id="Layer_6">
	<g>
		<path class="st2" d="M128,22.6c0,27.6,0,55.2,0,82.8c0,0.5-0.1,1-0.2,1.5c-0.3,2.5-1.1,4.8-2.2,7c-1.2,2.4-2.9,4.6-4.9,6.5
			c-3.2,2.9-6.9,4.8-11.1,5.6c-0.6,0.1-1.3,0.2-1.9,0.3c-29.2,0-58.3,0-87.5,0c-0.1,0-0.2-0.1-0.3-0.1c-2.7-0.3-5.3-1.1-7.8-2.4
			c-2.3-1.2-4.4-2.8-6.2-4.7c-1.5-1.6-2.7-3.3-3.6-5.2c-1-2.1-1.7-4.2-2.1-6.5c-0.1-0.6-0.2-1.2-0.4-1.9c0-27.6,0-55.3,0-82.9
			c0.1-0.7,0.3-1.3,0.4-2c0.4-2.3,1.1-4.5,2.1-6.5c1.2-2.4,2.9-4.6,4.9-6.5C8.9,6.2,10.7,5,12.6,4c2.2-1.1,4.6-1.8,7.1-2.2
			c0.5-0.1,0.9-0.1,1.4-0.2c28.7,0,57.3,0,86,0c0.1,0,0.1,0.1,0.2,0.1c0.8,0.1,1.7,0.2,2.5,0.3c4.8,1,8.9,3.2,12.3,6.9
			c1.8,1.9,3.2,4.1,4.2,6.5c0.9,2.2,1.6,4.5,1.7,6.9C127.9,22.4,128,22.5,128,22.6z"/>
		<g>
			<path class="st3" d="M26.2,88.7c2.7-7.7,5.3-15.3,8-23c3.1-8.8,6.1-17.7,9.2-26.5c0.6-1.7,0.9-3.4,0.9-5.2c0-0.5,0.2-0.7,0.7-0.7
				c4.5,0,9,0,13.4,0c0.7,0,0.8,0.1,1,0.7c3.4,9.6,6.8,19.3,10.3,28.9c2.6,7.4,5.2,14.7,7.8,22.1c0.4,1.1,0.8,2.3,1.2,3.4
				c0,0.1,0,0.1,0.1,0.2c0.2,0.7,0,0.9-0.7,0.9c-3.7,0-7.4,0-11,0c-0.4,0-0.7-0.2-0.9-0.6c-0.8-2.4-1.7-4.8-2.5-7.2
				c-0.6-1.7-1.2-3.4-1.8-5.1c-0.1-0.2-0.2-0.3-0.4-0.3c-6.4,0-12.9,0-19.3,0c-0.3,0-0.3,0.1-0.4,0.3c-1.3,4-2.6,8.1-3.9,12.1
				c-0.2,0.7-0.5,0.9-1.2,0.9c-3.2,0-6.4,0-9.6,0c-0.2,0-0.4,0-0.5,0c-0.1-0.1-0.2-0.2-0.4-0.4C26.2,89,26.2,88.8,26.2,88.7z
				 M58.5,65.3c-2.3-7.4-4.8-14.7-6.8-22.2c0,0.1-0.1,0.1-0.1,0.1c-0.3,1.4-0.6,2.8-1,4.2c-0.9,3.1-1.9,6.2-2.8,9.3
				c-0.8,2.7-1.7,5.4-2.5,8.1c0,0.2-0.1,0.3-0.2,0.5C49.6,65.3,54,65.3,58.5,65.3z"/>
			<path class="st3" d="M84.6,68.3c0-6.8,0-13.6,0-20.4c0-0.7,0.2-0.9,0.9-0.9c3.4,0,6.8,0,10.3,0c0.6,0,0.8,0.2,0.9,0.8
				c0,0.1,0,0.2,0,0.3c0,13.5,0,26.9,0,40.4c0,0.2,0,0.3,0,0.5c0,0.5-0.3,0.7-0.8,0.7c-0.4,0-0.9,0-1.3,0c-3,0-5.9,0-8.9,0
				c-0.8,0-1-0.3-1-1C84.6,82,84.6,75.1,84.6,68.3z"/>
			<path class="st3" d="M90.6,42.6c-1.7,0.1-3.2-0.5-4.5-1.6c-1.1-0.9-1.7-2.2-2-3.6c-0.3-1.9-0.2-3.7,0.9-5.4
				c1.1-1.6,2.5-2.5,4.4-2.8c1.6-0.3,3.1-0.1,4.6,0.6c1.7,0.9,2.7,2.3,3.1,4.1c0.6,2.6,0.1,5-1.8,6.9C94,42.2,92.4,42.7,90.6,42.6z"
				/>
		</g>
	</g>
</g>
</svg>
