<?xml version="1.0" encoding="utf-8"?>
<!-- Generator: Adobe Illustrator 26.2.1, SVG Export Plug-In . SVG Version: 6.00 Build 0)  -->
<svg version="1.1" id="Layer_2" xmlns="http://www.w3.org/2000/svg" xmlns:xlink="http://www.w3.org/1999/xlink" x="0px" y="0px"
	 viewBox="0 0 128 128" style="enable-background:new 0 0 128 128;" xml:space="preserve">
<style type="text/css">
	.st0{fill:url(#SVGID_1_);}
</style>
<linearGradient id="SVGID_1_" gradientUnits="userSpaceOnUse" x1="-950.64" y1="62.9998" x2="-950.64" y2="57.8789" gradientTransform="matrix(25 0 0 -25 23830 1575)">
	<stop  offset="0" style="stop-color:#21C6B7"/>
	<stop  offset="1" style="stop-color:#4C9BBF"/>
</linearGradient>
<path class="st0" d="M92.8,44.4L92.8,44.4c-0.1,0-0.1,0-0.1,0c-0.1-0.1-0.1-0.2-0.1-0.3l2.6-15.8l12.1,12.1l-12.6,5.3
	c0,0-0.1,0-0.1,0h0c0,0,0,0-0.1-0.1C94,45.2,93.4,44.8,92.8,44.4z M110.3,43.5l13,12.9c2.7,2.7,4,4,4.5,5.6c0.1,0.2,0.1,0.5,0.2,0.7
	L97,49.6H97c-0.1-0.1-0.3-0.1-0.3-0.2c0-0.1,0.1-0.2,0.3-0.2h0L110.3,43.5z M127.5,66.9c-1.2,1.8-2.6,3.4-4.2,4.8l-14.6,14.6
	l-18.9-3.9h-0.1c-0.2,0-0.3-0.1-0.3-0.2c-0.1-1.6-0.9-3-2.2-4c-0.1-0.1-0.1-0.2,0-0.3v0l3.6-21.8v-0.1c0-0.2,0.1-0.4,0.2-0.4
	c1.5-0.2,2.9-1,3.9-2.2c0,0,0.1-0.1,0.1-0.1c0.1,0,0.2,0,0.3,0L127.5,66.9z M105.3,89.6l-24,24l4.1-25.2v0v-0.1
	c0-0.1,0.1-0.1,0.2-0.2h0c0.9-0.4,1.7-1,2.3-1.7c0.1-0.1,0.2-0.2,0.3-0.2c0,0,0.1,0,0.1,0L105.3,89.6z M76.2,118.6l-2.7,2.7
	L43.6,78.1l0,0c-0.1-0.1-0.1-0.1-0.1-0.2c0-0.1,0-0.1,0.1-0.1l0,0c0.1-0.1,0.2-0.3,0.3-0.4l0.1-0.1l0,0c0-0.1,0.1-0.1,0.2-0.2
	c0.1,0,0.2,0,0.2,0l33.2,6.8c0.1,0,0.2,0.1,0.3,0.1c0,0,0.1,0.1,0.1,0.1v0.1c0.5,1.7,1.7,3.2,3.4,3.9c0.1,0,0.1,0.2,0,0.3
	c0,0,0,0.1-0.1,0.2C80.8,90.9,77.2,112.7,76.2,118.6L76.2,118.6z M70.6,124.3c-1.2,1.5-2.8,2.7-4.5,3.4c-1.3,0.4-2.7,0.4-4,0
	c-1.6-0.5-2.9-1.8-5.6-4.5l-30.1-30L34.2,81c0-0.1,0.1-0.1,0.1-0.2c0.1,0,0.2,0,0.3,0c0.8,0.2,1.6,0.4,2.4,0.4
	c1.1,0,2.1-0.2,3.1-0.6c0.1,0,0.2,0,0.3,0c0,0,0.1,0.1,0.1,0.1L70.6,124.3z M23.5,90.3l-6.9-6.9l13.6-5.8c0,0,0.1,0,0.1,0
	c0.1,0,0.2,0.1,0.2,0.2l0,0.1c0.1,0.2,0.3,0.4,0.4,0.5l0,0.1c0,0.1,0,0.1,0,0.2L23.5,90.3z M13.6,80.3l-8.7-8.7
	c-1.5-1.5-2.6-2.6-3.3-3.5L28,73.6h0.1c0.2,0,0.3,0.1,0.3,0.2c0,0.2-0.2,0.2-0.4,0.3l-0.1,0L13.6,80.3z M0,63.7
	c0-0.6,0.1-1.1,0.3-1.7c0.5-1.6,1.8-2.9,4.5-5.6L16,45.3c1.8,2.7,14,20.2,15.4,22.3l0,0.1c0.1,0.1,0.2,0.3,0.1,0.4
	c-0.5,0.5-1,1.1-1.3,1.8c0,0.1-0.1,0.2-0.2,0.2c0,0-0.1,0-0.1,0l0,0L0,63.7z M19,42.3l15-15c1.4,0.6,6.5,2.8,11.1,4.7
	c3.5,1.5,6.6,2.8,7.6,3.2c0.1,0,0.2,0.1,0.2,0.2c0,0.1,0,0.1,0,0.2c-0.1,0.5-0.2,1-0.2,1.4c0,1.7,0.7,3.4,1.9,4.7
	c0.1,0.1,0,0.2-0.1,0.4l0,0.1L39.4,65.8c0,0.1-0.1,0.1-0.1,0.2c-0.1,0-0.2,0-0.3,0c-0.6-0.2-1.2-0.2-1.8-0.2c-0.6,0-1.2,0.1-1.7,0.2
	l0,0c-0.1,0-0.1,0-0.2,0c-0.1,0-0.1-0.1-0.2-0.2L19,42.3z M37,24.3L56.5,4.8c2.7-2.7,4-4,5.6-4.5c1.3-0.4,2.7-0.4,4,0
	c1.6,0.5,2.9,1.8,5.6,4.5L75.9,9L62.1,30.4c0,0.1-0.1,0.1-0.1,0.2c-0.1,0-0.2,0-0.3,0c-0.7-0.2-1.4-0.3-2.1-0.3
	c-1.6,0-3.1,0.6-4.3,1.5c-0.1,0.1-0.2,0-0.3,0C53.1,31,39,25.1,37,24.3z M78.8,12l12.8,12.7l-3.1,19v0.1c0,0,0,0.1,0,0.1
	c0,0.1-0.1,0.1-0.2,0.1h-0.1c-0.6,0.2-1.2,0.5-1.8,0.9L86.4,45c0,0-0.1,0.1-0.1,0.1c0,0-0.1,0-0.1,0l-19.4-8.3h0
	c-0.1-0.1-0.3-0.1-0.3-0.2c-0.1-1.1-0.4-2.1-1-3l0-0.1c-0.1-0.2-0.2-0.3-0.1-0.5L78.8,12z M65.7,40.7l18.2,7.7
	c0.1,0,0.2,0.1,0.3,0.2c0,0.1,0,0.1,0,0.2c-0.1,0.3-0.1,0.6-0.1,0.9v0.5c0,0.1-0.1,0.2-0.3,0.2h0c-2.9,1.2-40.5,17.3-40.6,17.3
	c-0.1,0-0.1,0-0.2-0.1c-0.1-0.1,0-0.2,0.1-0.4l0-0.1l15-23.2l0,0c0.1-0.1,0.2-0.3,0.3-0.3l0.2,0c0.3,0.1,0.6,0.1,0.9,0.1
	c2.3,0,4.4-1.1,5.7-3c0-0.1,0.1-0.1,0.1-0.1C65.5,40.6,65.6,40.6,65.7,40.7z M44.8,71.4l41-17.5c0,0,0.1,0,0.1,0.1
	c0.2,0.2,0.4,0.4,0.6,0.5l0.1,0.1c0.1,0.1,0.2,0.1,0.2,0.2v0.1l-3.5,21.6v0.1c0,0.2,0,0.4-0.2,0.4c-1.9,0.1-3.6,1.2-4.6,2.8v0
	c0,0.1-0.1,0.1-0.2,0.2c-0.1,0-0.2,0-0.2,0l-32.7-6.7C45.4,73.1,44.8,71.4,44.8,71.4z"/>
</svg>
