<?xml version="1.0" encoding="utf-8"?>
<!-- Generator: Adobe Illustrator 26.2.1, SVG Export Plug-In . SVG Version: 6.00 Build 0)  -->
<svg version="1.1" id="Layer_1" xmlns="http://www.w3.org/2000/svg" xmlns:xlink="http://www.w3.org/1999/xlink" x="0px" y="0px"
	 viewBox="0 0 128 128" style="enable-background:new 0 0 128 128;" xml:space="preserve">
<style type="text/css">
	.st0{display:none;fill:#20D181;}
	.st1{display:none;fill:#FFFFFF;stroke:#000000;stroke-miterlimit:10;}
	.st2{fill:#CB3837;}
</style>
<g id="Layer_13">
	<path class="st0" d="M0,0h128v128H0V0z"/>
	<path class="st1" d="M0,0h128v128H0V0z"/>
</g>
<g id="Layer_4">
	<path class="st2" d="M2,38.5h124v43.7H64v7.3H36.4v-7.3H2V38.5z M8.9,74.9h13.8V53.1h6.9V75h6.9V45.8H8.9V74.9z M43.3,45.8v36.4
		h13.8v-7.3h13.8V45.8H43.3z M57.1,53.1H64v14.6h-6.9V53.1z M77.8,45.8v29.1h13.8V53.1h6.9V75h6.9V53.1h6.9V75h6.9V45.8H77.8z"/>
</g>
</svg>
