<?xml version="1.0" encoding="utf-8"?>
<!-- Generator: Adobe Illustrator 26.2.1, SVG Export Plug-In . SVG Version: 6.00 Build 0)  -->
<svg version="1.1" id="Layer_1" xmlns="http://www.w3.org/2000/svg" xmlns:xlink="http://www.w3.org/1999/xlink" x="0px" y="0px"
	 viewBox="0 0 128 128" style="enable-background:new 0 0 128 128;" xml:space="preserve">
<style type="text/css">
	.st0{display:none;fill:#20D181;}
	.st1{display:none;fill:#FFFFFF;stroke:#000000;stroke-miterlimit:10;}
	.st2{fill:#001E36;}
	.st3{fill:#31A8FF;}
</style>
<g id="Layer_13">
	<path class="st0" d="M0,0h128v128H0V0z"/>
	<path class="st1" d="M0,0h128v128H0V0z"/>
</g>
<g id="Layer_3">
	<g>
		<g id="Layer_3_xA0_Image_1_">
			<path class="st2" d="M127.8,22.5c0,27.5,0,55.1,0,82.6c0,0.5-0.1,1-0.2,1.5c-0.3,2.5-1.1,4.8-2.2,7c-1.2,2.4-2.8,4.6-4.9,6.4
				c-3.2,2.9-6.9,4.8-11.1,5.6c-0.6,0.1-1.3,0.2-1.9,0.3c-29.1,0-58.2,0-87.3,0c-0.1,0-0.2-0.1-0.3-0.1c-2.7-0.3-5.3-1.1-7.8-2.4
				c-2.3-1.2-4.4-2.8-6.2-4.7c-1.5-1.6-2.7-3.3-3.6-5.2c-1-2.1-1.7-4.2-2.1-6.5c-0.1-0.6-0.2-1.2-0.4-1.9c0-27.6,0-55.2,0-82.8
				c0.1-0.7,0.3-1.3,0.4-2c0.4-2.3,1.1-4.4,2.1-6.5c1.2-2.4,2.9-4.6,4.9-6.4c1.6-1.4,3.3-2.7,5.2-3.6c2.2-1.1,4.6-1.8,7-2.2
				c0.5-0.1,0.9-0.1,1.4-0.2c28.6,0,57.2,0,85.8,0c0.1,0,0.1,0.1,0.2,0.1c0.8,0.1,1.7,0.2,2.5,0.3c4.8,1,8.9,3.2,12.3,6.8
				c1.8,1.9,3.2,4.1,4.2,6.5c0.9,2.2,1.6,4.5,1.6,6.8C127.7,22.3,127.7,22.4,127.8,22.5z"/>
		</g>
		<g id="Layer_4_xA0_Image_1_">
			<path class="st3" d="M43.3,35c0.5,0,0.9,0,1.4,0.1c1.6,0.2,3.2,0.3,4.7,0.5c4.2,0.8,7.9,2.4,11,5.4c2.3,2.2,3.7,4.9,4.5,8
				c0.4,1.6,0.7,3.2,0.7,4.9c0,3.6-0.5,7-2.3,10.1c-2,3.4-4.8,5.9-8.5,7.5c-1.8,0.8-3.8,1.3-5.7,1.7c-2.9,0.5-5.9,0.6-8.9,0.5
				c-1.1,0-2.1-0.1-3.3-0.1c0,0.2,0,0.3,0,0.4c0,5.5,0,11,0,16.6c0,0.6-0.2,0.9-0.9,0.9c-3.3,0-6.6,0-9.9,0c-0.5,0-0.7-0.1-0.8-0.6
				c0-18.4,0-36.7,0-55.1c0.1-0.2,0.2-0.4,0.5-0.4c2.4-0.1,4.7-0.1,7.1-0.2c2.2,0,4.4-0.1,6.7-0.1c0.1,0,0.2,0,0.2,0
				C41,35,42.2,35,43.3,35z M37,63.5c0.5,0,1,0.1,1.4,0.1c2.4,0,4.7,0.2,7.1-0.3c1.4-0.3,2.7-0.6,4-1.2c1.7-0.9,3.2-2.1,3.9-4
				s0.8-3.9,0.4-5.9c-0.6-2.6-2.1-4.4-4.6-5.5c-1.7-0.7-3.4-1.1-5.3-1.1c-2.1,0-4.2,0-6.3,0c-0.2,0-0.4,0-0.6,0.1
				C37,51.6,37,57.5,37,63.5z"/>
			<path class="st3" d="M71.3,84.5c0-1.5,0-3.1,0-4.6c0-0.6,0.3-0.8,0.8-0.5c2.6,1.5,5.3,2.4,8.2,2.9c1.9,0.4,3.8,0.5,5.8,0.4
				c1.1-0.1,2.1-0.2,3.1-0.7c1.3-0.5,2.2-2.4,0.7-3.9c-0.7-0.7-1.6-1.2-2.5-1.6c-1.8-0.8-3.6-1.4-5.3-2.2c-2.2-0.9-4.3-2-6.1-3.5
				c-1.8-1.5-3.2-3.2-4-5.5c-0.4-1.1-0.6-2.3-0.6-3.5c-0.1-2.3,0.4-4.5,1.6-6.6c1.3-2.3,3.1-3.9,5.4-5.1c2-1,4.1-1.6,6.3-1.8
				c2-0.2,4-0.3,6-0.1c1.6,0.1,3.2,0.3,4.8,0.5c1.4,0.2,2.7,0.6,4,1.1c0.4,0.2,0.6,0.6,0.6,1c0,2.9,0,5.9,0,8.8
				c0,0.3-0.1,0.5-0.5,0.6c-0.3,0.1-0.6,0.1-0.9-0.1c-2-1-4.1-1.6-6.3-2c-1.6-0.3-3.2-0.4-4.8-0.4c-1.1,0-2.2,0.1-3.3,0.4
				c-1.1,0.3-1.8,1.1-1.8,2.3c0,0.6,0.2,1.1,0.6,1.5c0.5,0.6,1.2,1.1,2,1.5c1.8,0.9,3.7,1.7,5.6,2.4c2.5,1,5,2.2,7.2,3.8
				c2.2,1.6,3.6,3.7,4.2,6.4c0.3,1.4,0.3,2.8,0.2,4.2c-0.2,2-0.8,3.8-1.9,5.5c-1.5,2.3-3.5,3.9-6.1,5c-1.9,0.8-3.9,1.3-6,1.5
				c-2,0.2-3.9,0.2-5.9,0.1c-2.4-0.1-4.8-0.5-7.2-1.1C74.1,90.9,73,90.4,72,90c-0.5-0.2-0.7-0.6-0.7-1.1
				C71.3,87.6,71.3,86.1,71.3,84.5z"/>
		</g>
	</g>
</g>
</svg>
