<?xml version="1.0" encoding="utf-8"?>
<!-- Generator: Adobe Illustrator 26.2.1, SVG Export Plug-In . SVG Version: 6.00 Build 0)  -->
<svg version="1.1" id="Layer_1" xmlns="http://www.w3.org/2000/svg" xmlns:xlink="http://www.w3.org/1999/xlink" x="0px" y="0px"
	 viewBox="0 0 128 128" style="enable-background:new 0 0 128 128;" xml:space="preserve">
<style type="text/css">
	.st0{display:none;fill:#20D181;}
	.st1{display:none;fill:#FFFFFF;stroke:#000000;stroke-miterlimit:10;}
	.st2{fill:#53C1DE;}
	.st3{fill-rule:evenodd;clip-rule:evenodd;fill:#53C1DE;}
</style>
<g id="Layer_13">
	<path class="st0" d="M0,0h128v128H0V0z"/>
	<path class="st1" d="M0,0h128v128H0V0z"/>
</g>
<g id="Layer_2_00000119096104660029104870000004971027780704156859_">
	<path class="st2" d="M75.4,64.2c0-6.1-5.1-11.1-11.4-11.1s-11.4,5-11.4,11.1S57.7,75.3,64,75.3C70.3,75.3,75.4,70.3,75.4,64.2z"/>
	<path class="st3" d="M101.1,43.3c2.4-9.5,5.4-27.2-5.2-33.1c-10.6-6-24.5,5.5-31.8,12.3c-7.3-6.8-21.5-18.1-32.2-12.1
		c-10.6,6-7.4,23.3-4.9,32.9C17,46,0,51.9,0,63.9S17,82.3,26.9,85c-2.5,9.6-5.6,26.7,5.1,32.7s24.9-5.1,32.3-12
		c7.4,6.9,21.1,18.1,31.7,12.1c10.7-6,7.9-23.4,5.4-33c9.6-2.7,26.6-9,26.6-20.9S110.9,46,101.1,43.3z M99.9,79.6
		c-1.6-5-3.8-10.3-6.5-15.7c2.6-5.3,4.7-10.6,6.2-15.5c7.2,2,22.9,6.6,22.9,15.5S107.5,77.5,99.9,79.6z M93.2,113.2
		c-7.9,4.5-19.8-6.2-25.2-11.3c3.6-3.8,7.2-8.3,10.7-13.2c6.2-0.5,12-1.4,17.3-2.6C97.9,92.9,101.2,108.7,93.2,113.2z M34.7,113.1
		c-7.9-4.4-4.3-19.7-2.5-26.8c5.2,1.1,11,1.9,17.3,2.4c3.5,4.8,7.3,9.3,11,13.2C55.8,106.3,42.6,117.6,34.7,113.1z M5.5,63.9
		c0-9,15.6-13.5,22.9-15.5c1.6,5.1,3.7,10.3,6.2,15.7C32,69.5,29.9,74.9,28.3,80C21.3,78,5.5,72.9,5.5,63.9z M34.6,14.9
		c8-4.5,20.4,6.4,25.7,11.3c-3.7,3.9-7.4,8.3-10.9,13.1c-6,0.5-11.8,1.4-17.1,2.6C30.2,34.2,26.6,19.4,34.6,14.9z M82.7,45.1
		c4.1,0.5,8,1.2,11.7,2c-1.1,3.4-2.5,7-4.1,10.7C87.9,53.5,85.4,49.2,82.7,45.1z M64.1,30.1c2.5,2.6,5,5.6,7.5,8.8
		c-5-0.2-10.1-0.2-15.1,0C59,35.7,61.5,32.7,64.1,30.1z M37.8,57.8c-1.6-3.7-3-7.3-4.1-10.7c3.7-0.8,7.5-1.4,11.6-1.9
		C42.6,49.2,40.1,53.5,37.8,57.8z M45.4,83.1c-4.2-0.5-8.1-1.1-11.8-1.8c1.1-3.5,2.5-7.2,4.1-11C40.1,74.6,42.7,78.9,45.4,83.1z
		 M64.2,98.1c-2.6-2.7-5.2-5.7-7.7-8.9c5.1,0.2,10.1,0.2,15.2,0C69.2,92.4,66.7,95.4,64.2,98.1z M90.3,70.1
		c1.7,3.8,3.2,7.4,4.3,10.9c-3.7,0.8-7.7,1.5-11.9,2C85.4,78.8,88,74.5,90.3,70.1z M75.7,83.6c-7.8,0.5-15.6,0.5-23.3,0
		C48,77.4,44.1,70.8,40.7,64c3.4-6.8,7.3-13.4,11.7-19.6c7.8-0.6,15.6-0.6,23.3,0c4.3,6.2,8.2,12.8,11.7,19.5
		C84,70.7,80,77.3,75.7,83.6z M93.1,14.8c8,4.5,4.4,20.3,2.7,27.2c-5.3-1.2-11.1-2.1-17.1-2.6c-3.5-4.9-7.2-9.3-10.8-13.1
		C73.3,21.3,85.2,10.4,93.1,14.8z"/>
</g>
</svg>
