<?xml version="1.0" encoding="utf-8"?>
<!-- Generator: Adobe Illustrator 26.2.1, SVG Export Plug-In . SVG Version: 6.00 Build 0)  -->
<svg version="1.1" id="Layer_1" xmlns="http://www.w3.org/2000/svg" xmlns:xlink="http://www.w3.org/1999/xlink" x="0px" y="0px"
	 viewBox="0 0 128 128" style="enable-background:new 0 0 128 128;" xml:space="preserve">
<style type="text/css">
	.st0{display:none;fill:#20D181;}
	.st1{fill:#FFFFFF;stroke:#000000;stroke-miterlimit:10;}
	.st2{fill:#CD6799;}
</style>
<g id="Layer_13">
	<path class="st0" d="M0,0h128v128H0V0z"/>
	<path class="st1" d="M0,0h128v128H0V0z"/>
</g>
<g id="Layer_15">
	<g>
		<path class="st2" d="M110.2,71.2c-4.5,0-8.3,1.1-11.6,2.7c-1.2-2.4-2.4-4.5-2.6-6c-0.2-1.8-0.5-2.9-0.2-5.1
			c0.3-2.2,1.5-5.2,1.5-5.4S97,56.1,94.4,56c-2.6,0-4.8,0.5-5.1,1.2c-0.3,0.7-0.7,2.2-1.1,3.8c-0.4,2.3-5.1,10.7-7.8,15.1
			c-0.9-1.7-1.6-3.2-1.8-4.4c-0.2-1.8-0.5-2.9-0.2-5.1s1.5-5.2,1.5-5.4s-0.3-1.3-2.9-1.4c-2.6,0-4.8,0.5-5.1,1.2
			c-0.3,0.7-0.5,2.3-1.1,3.8c-0.5,1.5-6.8,15.5-8.4,19.1c-0.8,1.8-1.6,3.3-2.1,4.3l0,0c0,0,0,0.1-0.1,0.2c-0.4,0.9-0.7,1.3-0.7,1.3
			l0,0c-0.4,0.6-0.7,1.2-0.9,1.2c-0.1,0-0.4-1.7,0-4c0.9-4.8,3.2-12.4,3.1-12.6c0-0.1,0.4-1.4-1.4-2.1c-1.8-0.7-2.5,0.4-2.6,0.4
			c-0.2,0-0.3,0.4-0.3,0.4s2-8.5-3.9-8.5c-3.7,0-8.8,4-11.3,7.7c-1.6,0.9-5,2.7-8.6,4.7c-1.4,0.8-2.8,1.5-4.1,2.3
			c-0.1-0.1-0.2-0.2-0.3-0.3C22.3,71.3,9,65.9,9.6,55.6C9.8,51.9,11.1,42,35,30.1c19.7-9.7,35.4-7,38.1-1.1
			c3.9,8.5-8.4,24.3-28.7,26.6c-7.8,0.9-11.8-2.1-12.9-3.3s-1.2-1.2-1.6-1c-0.7,0.4-0.2,1.4,0,2c0.6,1.6,3.1,4.4,7.3,5.8
			c3.7,1.2,12.8,1.9,23.9-2.4c12.3-4.8,22-18,19.1-29.1c-2.8-11.3-21.5-15-39.2-8.7c-10.6,3.9-22,9.8-30.2,17.4
			C1,45.5-0.5,53.4,0.1,56.7c2.3,11.8,18.5,19.5,25,25.1c-0.3,0.2-0.6,0.4-0.9,0.5C21,84,8.6,90.4,5.5,97.3
			c-3.5,7.8,0.6,13.3,3.3,14.1c8.3,2.3,16.9-1.8,21.5-8.7c4.6-6.9,4-15.8,1.9-19.9c0,0,0-0.1-0.1-0.1c0.8-0.5,1.7-1,2.5-1.5
			c1.7-1,3.3-1.9,4.7-2.6c-0.8,2.2-1.4,4.8-1.7,8.5c-0.4,4.4,1.4,10.1,3.8,12.3c1.1,1,2.3,1,3.1,1c2.8,0,4-2.3,5.4-5
			c1.7-3.3,3.2-7.2,3.2-7.2s-1.9,10.4,3.3,10.4c1.9,0,3.8-2.4,4.6-3.7l0,0c0,0,0-0.1,0.1-0.2c0.2-0.3,0.3-0.5,0.3-0.5l0,0
			c0.7-1.3,2.4-4.3,4.9-9.2c3.2-6.4,6.3-14.3,6.3-14.3s0.3,1.9,1.2,5.2c0.6,1.9,1.7,4,2.7,6c-0.7,1.1-1.2,1.6-1.2,1.6l0,0
			c-0.6,0.8-1.3,1.7-2,2.5c-2.5,3-5.6,6.5-6,7.5c-0.5,1.2-0.4,2.1,0.6,2.8c0.7,0.5,1.9,0.6,3.1,0.5c2.3-0.2,3.9-0.7,4.7-1.1
			c1.2-0.4,2.7-1.1,4-2.1c2.5-1.8,4-4.5,3.9-8c-0.1-1.9-0.7-3.8-1.5-5.6c0.2-0.3,0.4-0.7,0.7-1c4-5.8,7-12.1,7-12.1s0.3,1.9,1.2,5.2
			c0.5,1.6,1.4,3.4,2.3,5.1c-3.7,3-6,6.5-6.8,8.8c-1.5,4.3-0.3,6.2,1.8,6.6c1,0.2,2.4-0.3,3.4-0.7c1.3-0.4,2.9-1.1,4.3-2.2
			c2.5-1.8,4.9-4.4,4.8-7.9c-0.1-1.6-0.5-3.2-1.1-4.7c3.2-1.3,7.2-2,12.4-1.4C123.2,77,125.4,84,125,86.9c-0.4,2.9-2.8,4.5-3.5,5
			c-0.8,0.5-1,0.7-1,1c0.1,0.5,0.5,0.5,1.1,0.4c0.9-0.2,5.8-2.4,6.1-7.7C128.4,78.6,121.8,71.1,110.2,71.2L110.2,71.2z M24.4,100.1
			c-3.7,4-8.8,5.5-11.1,4.3c-2.4-1.4-1.4-7.3,3.1-11.6c2.8-2.6,6.3-5,8.7-6.5c0.5-0.3,1.3-0.8,2.3-1.4c0.2-0.1,0.3-0.1,0.3-0.1l0,0
			c0.2-0.1,0.4-0.2,0.6-0.4C29.8,90.6,28.2,95.9,24.4,100.1L24.4,100.1z M51.3,81.9C50,85,47.3,93,45.6,92.6
			c-1.4-0.4-2.3-6.5-0.3-12.5c1-3,3.1-6.6,4.4-8c2-2.2,4.2-3,4.8-2.1C55.2,71.2,52,79.9,51.3,81.9L51.3,81.9z M73.4,92.5
			c-0.5,0.3-1.1,0.5-1.3,0.3c-0.2-0.1,0.2-0.5,0.2-0.5s2.8-3,3.9-4.3c0.6-0.8,1.4-1.7,2.2-2.8v0.3C78.4,89.1,75,91.5,73.4,92.5
			L73.4,92.5z M90.6,88.6c-0.4-0.3-0.3-1.2,1-4.1c0.5-1.1,1.7-3.1,3.8-4.9c0.2,0.7,0.4,1.5,0.4,2.2C95.7,86.2,92.5,87.9,90.6,88.6
			L90.6,88.6z"/>
	</g>
</g>
</svg>
