<?xml version="1.0" encoding="utf-8"?>
<!-- Generator: Adobe Illustrator 26.2.1, SVG Export Plug-In . SVG Version: 6.00 Build 0)  -->
<svg version="1.1" id="Layer_2" xmlns="http://www.w3.org/2000/svg" xmlns:xlink="http://www.w3.org/1999/xlink" x="0px" y="0px"
	 viewBox="0 0 128 128" style="enable-background:new 0 0 128 128;" xml:space="preserve">
<g transform="translate(0.000000,512.000000) scale(0.100000,-0.100000)">
	<path d="M577.7,5115.5c-125.1-13.7-242.7-62-337.6-138.5c-32.1-25.9-84.7-80-107.9-110.9c-66-88.2-108.1-188.9-124.1-297.3
		c-5.5-36.6-7.2-106.6-3.7-143.3C14.8,4317.6,49.2,4218,105.3,4133c103.2-156.7,260.9-257.1,446.3-284.6
		c36.6-5.5,106.6-7.2,143.3-3.7c107.9,10.5,207.6,44.9,292.5,100.9c156.7,103.2,257.1,260.9,284.6,446.3
		c5.5,36.6,7.2,106.6,3.7,143.3c-12.7,130.6-59.3,246.2-139,345.1c-25.9,32.1-80,84.7-110.9,107.9c-88.2,66-188.1,107.6-297.3,124.1
		C698.3,5116.7,607.1,5118.7,577.7,5115.5z M804.2,4530.4c86.5-151.2,157.2-275.3,157.2-275.8s-141.8-1-315.2-1
		s-315.2,0.5-315.2,1.2c0,2,314.7,552.2,315.5,551.2C646.7,4805.8,718,4681.7,804.2,4530.4z"/>
</g>
</svg>
