<?xml version="1.0" encoding="utf-8"?>
<!-- Generator: Adobe Illustrator 26.2.1, SVG Export Plug-In . SVG Version: 6.00 Build 0)  -->
<svg version="1.1" id="Layer_1" xmlns="http://www.w3.org/2000/svg" xmlns:xlink="http://www.w3.org/1999/xlink" x="0px" y="0px"
	 viewBox="0 0 128 128" style="enable-background:new 0 0 128 128;" xml:space="preserve">
<style type="text/css">
	.st0{display:none;fill:#20D181;}
	.st1{display:none;fill:#FFFFFF;stroke:#000000;stroke-miterlimit:10;}
	.st2{fill:#2489CA;}
	.st3{fill:#1070B3;}
	.st4{fill:#0877B9;}
	.st5{fill:#3C99D4;}
</style>
<g id="Layer_13">
	<path class="st0" d="M0,0h128v128H0V0z"/>
	<path class="st1" d="M0,0h128v128H0V0z"/>
</g>
<g id="Layer_1_00000119814513173852734540000002615720256539549882_">
	<g>
		<path class="st2" d="M1.8,45c0,0-3.1-2.2,0.6-5.2l8.6-7.7c0,0,2.5-2.6,5.1-0.3l79.7,60.5v29c0,0,0,4.6-5.9,4.1L1.8,45z"/>
		<path class="st3" d="M22.4,63.7L1.8,82.4c0,0-2.1,1.6,0,4.4l9.5,8.7c0,0,2.3,2.4,5.6-0.3l21.8-16.5L22.4,63.7z"/>
		<path class="st4" d="M58.4,63.8L96.1,35L95.8,6.2c0,0-1.6-6.3-7-3L38.7,48.9L58.4,63.8z"/>
		<path class="st5" d="M89.9,125.2c2.2,2.2,4.8,1.5,4.8,1.5l29.3-14.5c3.8-2.6,3.2-5.8,3.2-5.8V19.9c0-3.8-3.9-5.1-3.9-5.1L98,2.5
			c-5.6-3.4-9.2,0.6-9.2,0.6s4.7-3.4,7,3v114.5c0,0.8-0.2,1.6-0.5,2.3c-0.7,1.4-2.1,2.6-5.6,2.1L89.9,125.2z"/>
	</g>
</g>
</svg>
