<?xml version="1.0" encoding="utf-8"?>
<!-- Generator: Adobe Illustrator 26.2.1, SVG Export Plug-In . SVG Version: 6.00 Build 0)  -->
<svg version="1.1" id="Layer_1" xmlns="http://www.w3.org/2000/svg" xmlns:xlink="http://www.w3.org/1999/xlink" x="0px" y="0px"
	 viewBox="0 0 128 128" style="enable-background:new 0 0 128 128;" xml:space="preserve">
<style type="text/css">
	.st0{display:none;fill:#20D181;}
	.st1{fill:#FFFFFF;stroke:#000000;stroke-miterlimit:10;}
	.st2{fill:#470137;}
	.st3{fill:#FF61F6;}
</style>
<g id="Layer_13">
	<path class="st0" d="M0,0h128v128H0V0z"/>
	<path class="st1" d="M0,0h128v128H0V0z"/>
</g>
<g id="Layer_11">
	<g id="Layer_3_xA0_Image_00000077308618896657285250000006933359511970823839_">
		<path class="st2" d="M128,22.6c0,27.6,0,55.2,0,82.8c0,0.5-0.1,1-0.2,1.5c-0.3,2.5-1.1,4.8-2.2,7c-1.2,2.4-2.9,4.6-4.9,6.5
			c-3.2,2.9-6.9,4.8-11.1,5.6c-0.6,0.1-1.3,0.2-1.9,0.3c-29.2,0-58.3,0-87.5,0c-0.1,0-0.2-0.1-0.3-0.1c-2.7-0.3-5.3-1.1-7.8-2.4
			c-2.3-1.2-4.4-2.8-6.2-4.7c-1.5-1.6-2.7-3.3-3.6-5.2c-1-2.1-1.7-4.2-2.1-6.5c-0.1-0.6-0.2-1.3-0.4-1.9c0-27.6,0-55.3,0-82.9
			c0.1-0.7,0.3-1.3,0.4-2c0.4-2.3,1.1-4.5,2.1-6.5c1.2-2.4,2.9-4.6,4.9-6.5C8.9,6.2,10.7,5,12.6,4c2.2-1.1,4.6-1.8,7-2.1
			c0.5-0.1,0.9-0.1,1.4-0.2c28.7,0,57.3,0,86,0c0.1,0,0.1,0.1,0.2,0.1c0.8,0.1,1.7,0.2,2.5,0.3c4.8,1,8.9,3.2,12.3,6.9
			c1.8,1.9,3.2,4.1,4.2,6.5c0.9,2.2,1.6,4.5,1.7,6.9C127.9,22.4,128,22.5,128,22.6z"/>
		<g>
			<path class="st3" d="M108.6,90.2c-0.1,0.6-0.5,0.8-1,1c-3.3,1.3-6.7,2.2-10.2,2.6c-2.9,0.4-5.9,0.6-8.8,0.3
				c-5.7-0.6-10.8-2.4-14.6-6.9c-2.1-2.5-3.4-5.3-4.1-8.5c-0.6-2.7-0.7-5.5-0.5-8.3c0.5-5.5,2.9-10.2,7-13.9
				c3.4-3.1,7.4-4.8,11.9-5.6c2.6-0.4,5.2-0.5,7.8-0.3c0.1,0,0.2,0,0.3,0c0-0.3,0-0.5,0-0.8c0-5.1,0-10.2,0-15.3
				c0-0.4-0.1-0.9,0.4-1.1c3.7,0,7.3,0,11,0c0.4,0.2,0.4,0.6,0.4,1c0,16.9,0,33.8,0,50.7c0,1.5,0.2,3.1,0.3,4.6
				C108.6,90.1,108.6,90.2,108.6,90.2z M96.4,60.8c-2.5-0.6-5-0.5-7.3,0.3c-3.6,1.3-6.3,3.6-7.3,7.4C81,71.7,81.2,75,82.4,78
				c1,2.4,2.6,4.1,5,5.1c2.7,1.1,5.5,1,8.3,0.8c0.6-0.1,0.8-0.3,0.8-0.9c0-7.2,0-14.3,0-21.5C96.4,61.3,96.4,61.1,96.4,60.8z"/>
			<path class="st3" d="M44.3,58.8c1.1-2.1,2.1-4.2,3.2-6.2c2.3-4.4,4.7-8.7,6.9-13.1c0.5-1,1.1-1.3,2.1-1.3c3.3,0.1,6.7,0,10,0
				c0.3,0,0.7,0.1,0.8,0.3c0.1,0.1-0.1,0.5-0.2,0.8C62.1,47.6,57,56,52,64.3c-0.3,0.5-0.3,0.7,0,1.2c5.3,8.7,10.7,17.5,16,26.2
				c0.2,0.4,0.3,0.8,0.5,1.2c-0.4,0.1-0.8,0.2-1.2,0.2c-3.6,0-7.2,0-10.9,0c-0.3,0-0.6,0-1,0c-0.8,0-1.3-0.4-1.7-1.1
				c-3.4-6.3-6.8-12.7-10.2-19c0-0.1-0.1-0.2-0.2-0.3c-0.1,0.2-0.2,0.3-0.3,0.5c-3.5,6.5-6.9,13-10.4,19.5c-0.2,0.4-0.5,0.6-0.9,0.6
				c-1.1,0-2.1,0-3.2,0c-2.9,0-5.7,0-8.6,0c-0.2,0-0.3,0-0.6,0c0.1-0.4,0.2-0.7,0.3-1c4.8-8,9.7-16,14.6-23.9c0.4-0.7,0.8-1.3,1.2-2
				c0.3-0.4,0.2-0.6,0-1c-5-8.7-10.1-17.4-15.3-26.2c-0.4-0.7-0.3-1,0.5-1c4,0,8.1,0,12.1,0c0.5,0,0.9,0.3,1.1,0.7
				c2.7,6.1,6.3,11.7,9.4,17.6C43.5,57.3,43.9,58,44.3,58.8z"/>
		</g>
	</g>
</g>
</svg>
